<?xml version="1.0" encoding="utf-8"?>
<!-- Generator: Adobe Illustrator 17.0.0, SVG Export Plug-In . SVG Version: 6.00 Build 0)  -->
<!DOCTYPE svg PUBLIC "-//W3C//DTD SVG 1.1//EN" "http://www.w3.org/Graphics/SVG/1.1/DTD/svg11.dtd">
<svg version="1.1" id="圖層_1" xmlns="http://www.w3.org/2000/svg" xmlns:xlink="http://www.w3.org/1999/xlink" x="0px" y="0px"
	 width="100px" height="100px" viewBox="0 0 100 100" enable-background="new 0 0 100 100" xml:space="preserve">
<circle fill="#F9F7F7" stroke="#F9F7F7" stroke-width="3.5337" stroke-miterlimit="10" cx="-172.436" cy="-49.525" r="46.222"/>
<path fill="none" stroke="#0F2C4C" stroke-width="3.509" stroke-linecap="round" stroke-miterlimit="10" d="M-183.63-94.517
	c-19.936,4.997-34.7,23.034-34.7,44.519c0,25.347,20.547,45.894,45.894,45.894s45.894-20.547,45.894-45.894
	c0-21.481-14.758-39.515-34.689-44.516"/>
<path fill="none" stroke="#0F2C4C" stroke-width="3.509" stroke-linecap="round" stroke-miterlimit="10" d="M-138.848-30.61
	c1.946-3.371,3.326-6.913,4.174-10.516c0.969-4.118,1.24-8.315,0.857-12.431c-0.762-8.184-4.109-16.042-9.701-22.294"/>
<line fill="none" stroke="#0F2C4C" stroke-width="3.5086" stroke-miterlimit="10" x1="-150.044" y1="-37.08" x2="-161.238" y2="-43.543"/>
<path fill="none" stroke="#0F2C4C" stroke-width="3.5086" stroke-miterlimit="10" d="M-198.996-21.744
	c3.081,2.898,6.581,5.232,10.337,6.958"/>
<path fill="none" stroke="#0F2C4C" stroke-width="3.5086" stroke-miterlimit="10" d="M-150.044-37.08l11.199,6.466
	c-1.868,3.243-4.22,6.239-7.025,8.87c-2.134,2.003-4.53,3.794-7.174,5.321c-1.039,0.6-2.095,1.143-3.164,1.637
	c-10.574,4.886-22.424,4.608-32.451,0"/>
<polyline fill="none" stroke="#0F2C4C" stroke-width="3.5086" stroke-miterlimit="10" points="-150.044,-37.08 -161.238,-30.617 
	-172.433,-24.154 -188.658,-14.786 "/>
<path fill="none" stroke="#0F2C4C" stroke-width="3.509" stroke-linecap="round" stroke-linejoin="round" stroke-miterlimit="10" d="
	M-183.627-43.543l-11.194,6.463l-11.194,6.463c1.946,3.371,4.323,6.337,7.02,8.873"/>
<polyline fill="none" stroke="#0F2C4C" stroke-width="3.5086" stroke-miterlimit="10" points="-183.627,-43.543 -172.433,-50.006 
	-161.238,-43.543 "/>
<polyline fill="none" stroke="#0F2C4C" stroke-width="3.5086" stroke-miterlimit="10" points="-161.238,-43.543 -172.433,-37.08 
	-183.627,-30.617 -198.996,-21.744 "/>
<line fill="none" stroke="#0F2C4C" stroke-width="3.5086" stroke-miterlimit="10" x1="-172.436" y1="-37.075" x2="-161.241" y2="-30.611"/>
<path fill="none" stroke="#0F2C4C" stroke-width="0.3473" stroke-miterlimit="10" d="M-138.843-81.66"/>
<path fill="#0F2C4C" stroke="#0F2C4C" stroke-miterlimit="10" d="M-188.396-14.786c10.027,4.608,21.877,4.886,32.451,0
	c1.068-0.494,2.124-1.037,3.164-1.637c2.644-1.527,5.039-3.318,7.174-5.321c2.804-2.631,5.157-5.628,7.025-8.87l-11.199-6.466
	L-188.396-14.786z"/>
<path fill="#F4C21D" stroke="#F4C21D" stroke-width="3.5086" stroke-miterlimit="10" d="M-178.033-88.698
	c0-3.091,2.506-5.597,5.597-5.597s5.597,2.506,5.597,5.597"/>
<path fill="#0F2C4C" stroke="#0F2C4C" stroke-miterlimit="10" d="M-177.238-88.48c0,0,4.295-2.425,10.084,0.055l-5.278,36.03
	L-177.238-88.48z"/>
<line fill="none" stroke="#F9F7F7" stroke-width="1.7543" stroke-miterlimit="10" x1="-180.117" y1="-85.283" x2="-164.153" y2="-87.405"/>
<line fill="none" stroke="#F9F7F7" stroke-width="1.7543" stroke-miterlimit="10" x1="-180.117" y1="-80.849" x2="-164.153" y2="-82.971"/>
<line fill="none" stroke="#F9F7F7" stroke-width="1.7543" stroke-miterlimit="10" x1="-180.117" y1="-76.415" x2="-164.153" y2="-78.536"/>
<line fill="none" stroke="#F9F7F7" stroke-width="1.7543" stroke-miterlimit="10" x1="-180.117" y1="-71.98" x2="-164.153" y2="-74.102"/>
<line fill="none" stroke="#F9F7F7" stroke-width="1.7543" stroke-miterlimit="10" x1="-180.117" y1="-67.546" x2="-164.153" y2="-69.668"/>
<line fill="none" stroke="#F9F7F7" stroke-width="1.7543" stroke-miterlimit="10" x1="-180.117" y1="-63.112" x2="-164.153" y2="-65.233"/>
<line fill="none" stroke="#F9F7F7" stroke-width="1.7543" stroke-miterlimit="10" x1="-180.117" y1="-58.677" x2="-164.153" y2="-60.799"/>
<path fill="none" stroke="#0F2C4C" stroke-width="3.509" stroke-linecap="round" stroke-miterlimit="10" d="M-194.819-81.66
	c3.373-2.39,7.144-4.254,11.194-5.473c3.544-1.067,7.302-1.643,11.194-1.643v-0.005c3.742-0.004,7.513,0.535,11.194,1.648
	c2.801,0.847,5.551,2.026,8.195,3.552c1.039,0.6,2.038,1.243,2.999,1.921"/>
<circle fill="#F9F7F7" stroke="#F9F7F7" stroke-width="3.4568" stroke-miterlimit="10" cx="-303.433" cy="-54.127" r="45.217"/>
<line fill="none" stroke="#003E8F" stroke-width="2.7654" stroke-miterlimit="10" x1="-281.377" y1="-40.398" x2="-292.406" y2="-46.766"/>
<path fill="none" stroke="#003E8F" stroke-width="2.7654" stroke-miterlimit="10" d="M-329.606-25.288
	c3.036,2.855,6.484,5.155,10.185,6.855"/>
<path fill="none" stroke="#003E8F" stroke-width="2.7654" stroke-linecap="round" stroke-linejoin="round" stroke-miterlimit="10" d="
	M-281.377-40.398l11.034,6.37c-1.841,3.195-4.158,6.147-6.921,8.739c-2.103,1.973-4.463,3.738-7.068,5.242
	c-1.024,0.591-2.064,1.126-3.117,1.613c-10.418,4.814-22.093,4.54-31.972,0"/>
<polyline fill="none" stroke="#003E8F" stroke-width="2.7654" stroke-miterlimit="10" points="-281.377,-40.398 -292.406,-34.03 
	-303.435,-27.663 -319.422,-18.433 "/>
<path fill="none" stroke="#003E8F" stroke-width="2.7654" stroke-linecap="round" stroke-linejoin="round" stroke-miterlimit="10" d="
	M-314.464-46.766l-11.029,6.368l-11.029,6.368c1.917,3.321,4.26,6.244,6.916,8.742"/>
<polyline fill="none" stroke="#003E8F" stroke-width="2.7654" stroke-miterlimit="10" points="-314.464,-46.766 -303.435,-53.133 
	-292.406,-46.766 "/>
<polyline fill="none" stroke="#003E8F" stroke-width="2.7654" stroke-miterlimit="10" points="-292.406,-46.766 -303.435,-40.398 
	-314.464,-34.03 -329.606,-25.288 "/>
<line fill="none" stroke="#003E8F" stroke-width="2.7654" stroke-miterlimit="10" x1="-303.439" y1="-40.392" x2="-292.409" y2="-34.025"/>
<path fill="none" stroke="#003E8F" stroke-width="0.3422" stroke-miterlimit="10" d="M-270.342-84.32"/>
<path fill="#F2B83A" stroke="#F2B83A" stroke-width="3.4568" stroke-miterlimit="10" d="M-297.924-91.336
	c0-3.046-2.469-5.515-5.515-5.515s-5.515,2.469-5.515,5.515"/>
<path fill="#04437E" stroke="#003E8F" stroke-width="0.3457" stroke-miterlimit="10" d="M-319.987-18.431
	c9.879,4.54,21.554,4.814,31.972,0c1.053-0.486,2.093-1.022,3.117-1.613c2.605-1.504,4.965-3.269,7.068-5.242
	c2.763-2.592,5.081-5.544,6.921-8.739l-11.034-6.37L-319.987-18.431z"/>
<path fill="none" stroke="#003E8F" stroke-width="2.7654" stroke-linecap="round" stroke-miterlimit="10" d="M-270.346-34.023
	c1.918-3.321,3.277-6.811,4.113-10.361c0.955-4.057,1.222-8.193,0.844-12.248c-0.751-8.063-4.049-15.805-9.558-21.965"/>
<path fill="none" stroke="#003E8F" stroke-width="3.4568" stroke-linecap="round" stroke-miterlimit="10" d="M-314.468-97.989
	c-19.642,4.923-34.187,22.694-34.187,43.862c0,24.973,20.244,45.217,45.217,45.217s45.217-20.244,45.217-45.217
	c0-21.164-14.54-38.932-34.177-43.859"/>
<polygon fill="#003E8F" stroke="#003E8F" stroke-width="2.4307" stroke-miterlimit="10" points="-303.439,-53.45 -305.525,-91.16 
	-301.352,-91.158 "/>
<path fill="none" stroke="#003E8F" stroke-width="2.7654" stroke-linecap="round" stroke-miterlimit="10" d="M-325.491-84.32
	c3.323-2.354,7.038-4.191,11.029-5.392c3.492-1.051,7.194-1.619,11.029-1.619v-0.005c3.687-0.003,7.402,0.528,11.029,1.624
	c2.76,0.835,5.469,1.996,8.074,3.5c1.024,0.591,2.008,1.224,2.955,1.893"/>
<line fill="none" stroke="#F9F7F7" stroke-width="2.257" stroke-miterlimit="10" x1="-308.953" y1="-64.281" x2="-298.688" y2="-67.604"/>
<line fill="none" stroke="#F9F7F7" stroke-width="2.257" stroke-miterlimit="10" x1="-308.953" y1="-59.295" x2="-298.688" y2="-62.619"/>
<g>
	<circle fill="#F9F7F7" cx="50" cy="49.376" r="41.678"/>
</g>
<g>
	<path fill="#0F2C4C" d="M50,92.647c-23.86,0-43.271-19.411-43.271-43.271c0-19.885,13.454-37.146,32.718-41.975
		c0.854-0.212,1.719,0.305,1.933,1.158c0.214,0.854-0.305,1.719-1.158,1.933C22.377,14.964,9.915,30.954,9.915,49.376
		C9.915,71.478,27.897,89.46,50,89.46s40.085-17.982,40.085-40.085c0-18.422-12.462-34.411-30.306-38.884
		c-0.854-0.214-1.372-1.079-1.158-1.933c0.214-0.853,1.078-1.37,1.933-1.158c19.264,4.828,32.718,22.089,32.718,41.975
		C93.271,73.235,73.86,92.647,50,92.647z"/>
</g>
<g>
	<path fill="#0F2C4C" d="M50,85.717c-12.932,0-24.993-6.961-31.477-18.166c-0.169-0.293-0.216-0.641-0.128-0.967
		c0.088-0.327,0.301-0.605,0.594-0.774l30.373-17.537c0.609-0.352,1.389-0.143,1.741,0.466c0.352,0.61,0.143,1.389-0.466,1.741
		L21.39,67.367C27.555,77.146,38.401,83.168,50,83.168c18.633,0,33.792-15.159,33.792-33.792c0-1.037-0.047-2.081-0.14-3.103
		C82.987,38.966,80.03,32.215,75.1,26.75c-0.471-0.522-0.43-1.329,0.093-1.8c0.523-0.472,1.329-0.43,1.8,0.093
		c5.302,5.878,8.482,13.139,9.198,20.999c0.1,1.099,0.151,2.221,0.151,3.334C86.341,69.414,70.039,85.717,50,85.717z"/>
</g>
<g>
	<path fill="#F4C21D" d="M56.462,14.16c0-3.569-2.893-6.462-6.462-6.462c-3.569,0-6.462,2.893-6.462,6.462"/>
</g>
<g>
	<path fill="#0F2C4C" d="M26.517,76.145l-1.274-2.207l32.377-18.693l-7.617-4.398L20.137,68.089l-1.274-2.207l30.502-17.61
		c0.394-0.228,0.88-0.228,1.274,0l10.166,5.869c0.395,0.228,0.637,0.648,0.637,1.104s-0.243,0.876-0.637,1.104L26.517,76.145z"/>
</g>
<g>
	<path fill="#0F2C4C" d="M35.902,82.464l-1.274-2.207l33.155-19.142l-7.617-4.398L26.514,76.145l-1.274-2.207l34.289-19.797
		c0.394-0.228,0.88-0.228,1.274,0l10.166,5.869c0.395,0.228,0.637,0.648,0.637,1.104s-0.243,0.876-0.637,1.104L35.902,82.464z"/>
</g>
<g>
	
		<rect x="49.214" y="62.774" transform="matrix(0.866 0.5 -0.5 0.866 39.4036 -18.9605)" fill="#0F2C4C" width="11.739" height="2.549"/>
</g>
<g>
	<path fill="#0F2C4C" d="M35.324,81.233c4.465,2.06,9.436,3.209,14.676,3.209c12.979,0,24.31-7.051,30.374-17.531l-10.042-5.798
		L35.324,81.233z"/>
	<path fill="#0F2C4C" d="M50,85.717c-5.309,0-10.427-1.119-15.21-3.327c-0.433-0.2-0.718-0.624-0.739-1.1
		c-0.021-0.476,0.225-0.924,0.638-1.162l35.008-20.119c0.394-0.226,0.879-0.226,1.272,0.001l10.042,5.798
		c0.293,0.169,0.507,0.448,0.594,0.774c0.087,0.327,0.041,0.675-0.128,0.967C74.993,78.756,62.932,85.717,50,85.717z M38.198,81.052
		c3.762,1.406,7.721,2.116,11.802,2.116c11.6,0,22.446-6.023,28.611-15.802l-8.28-4.781L38.198,81.052z"/>
</g>
<g>
	<path fill="#0F2C4C" d="M70.33,21.902c-0.254,0-0.511-0.076-0.734-0.233c-0.859-0.606-1.743-1.172-2.626-1.682
		c-2.27-1.31-4.683-2.357-7.174-3.11c-3.024-0.915-6.157-1.398-9.32-1.44L50,15.439c-3.333,0-6.63,0.483-9.798,1.438
		c-3.503,1.055-6.799,2.667-9.796,4.79c-0.574,0.407-1.37,0.272-1.777-0.303c-0.407-0.574-0.271-1.37,0.303-1.777
		c3.222-2.283,6.767-4.016,10.535-5.151c3.024-0.91,6.156-1.422,9.327-1.526l0.001-0.019l1.205-0.006c0.011,0,0.023,0,0.034,0
		c3.564,0,7.097,0.522,10.502,1.552c2.677,0.809,5.272,1.934,7.71,3.342c0.95,0.548,1.899,1.156,2.822,1.807
		c0.575,0.406,0.712,1.201,0.306,1.776C71.124,21.714,70.731,21.902,70.33,21.902z"/>
</g>
<g>
	<polygon fill="#0E2C4C" points="50,49.502 48.06,14.447 51.94,14.448 	"/>
	<path fill="#0E2C4C" d="M51.128,49.564h-2.256l-2.005-36.248l6.267,0.002L51.128,49.564z M49.254,15.577L50,29.053l0.746-13.475
		L49.254,15.577z"/>
</g>
<g>
	<path fill="#F9F7F7" d="M45.963,40.703c-0.278,0-0.549-0.146-0.695-0.406c-0.215-0.384-0.079-0.869,0.304-1.085l8.075-4.538
		c0.384-0.215,0.869-0.079,1.085,0.304c0.215,0.384,0.079,0.869-0.304,1.085l-8.075,4.538C46.229,40.67,46.095,40.703,45.963,40.703
		z"/>
</g>
<g>
	<path fill="#F9F7F7" d="M45.963,46.509c-0.278,0-0.549-0.146-0.695-0.406c-0.215-0.384-0.079-0.869,0.304-1.085l8.075-4.538
		c0.384-0.215,0.869-0.079,1.085,0.304c0.215,0.384,0.079,0.869-0.304,1.085l-8.075,4.538
		C46.229,46.476,46.095,46.509,45.963,46.509z"/>
</g>
</svg>
