<?xml version="1.0" encoding="utf-8"?>
<!-- Generator: Adobe Illustrator 17.0.0, SVG Export Plug-In . SVG Version: 6.00 Build 0)  -->
<!DOCTYPE svg PUBLIC "-//W3C//DTD SVG 1.1//EN" "http://www.w3.org/Graphics/SVG/1.1/DTD/svg11.dtd">
<svg version="1.1" id="Layer_1" xmlns="http://www.w3.org/2000/svg" xmlns:xlink="http://www.w3.org/1999/xlink" x="0px" y="0px"
	 width="85.039px" height="85.039px" viewBox="1.193 -105.993 85.039 85.039" enable-background="new 1.193 -105.993 85.039 85.039"
	 xml:space="preserve">
<path fill="#112D4E" d="M742.9,94.15v5h8l-1,9h-7v25h-11v-25h-5v-9h5v-5c0,0-0.9-9.5,8-11h11v8h-5
	C745.9,91.15,743.1,91.05,742.9,94.15z"/>
<path fill="#444444" d="M857.3,94.65l5-1c0,0-4.2,4.7-5,5l0,0c-0.1,2.3,0,3,0,3c-9.6,41.2-45,23-45,23c12.9,0.3,14-5,14-5
	c-7.5-1.1-9-6-9-6c2.6,1.2,4-1,4-1c-8.1-2.1-7-10-7-10c1.4,1.2,3.6,1.7,4.9,1.9c-0.9-1.1-8.5-10.2-3.9-14.9c0,0,5.6,10,20.3,10.9
	l1-0.2c-0.2-0.7-0.2-1.4-0.2-2.2c0-5.8,4.7-10.5,10.5-10.5c7,0,8.5,4,8.5,4l5-3C860.3,88.65,859.8,93.65,857.3,94.65z"/>
<path fill="#112D4E" d="M948.3,137.65h-32c-5,0-9-4-9-9v-32c0-5,4-9,9-9h32c5,0,9,4,9,9v32C957.3,133.65,953.3,137.65,948.3,137.65z
	 M932.3,104.65c-4.4,0-8,3.6-8,8s3.6,8,8,8c4.4,0,8-3.6,8-8S936.7,104.65,932.3,104.65z M951.3,93.65h-8v8h8V93.65z M952.3,107.65
	h-6.9c0.6,1.6,0.9,3.2,0.9,5c0,7.7-6.3,14-14,14s-14-6.3-14-14c0-1.8,0.3-3.4,0.9-5h-6.9v18c0,3.9,3.1,7,7,7h26c3.9,0,7-3.1,7-7
	V107.65z"/>
<path fill="#444444" d="M1052.3,131.65v-19.6c0,0-1.1-4.1-5-3.9s-5.2,0.8-7,2.9v20.6h-10v-31h10v4.6c0,0,3.3-6.4,10-5.9
	c6.2,0.4,10.8,4.2,11.8,12.3h0.2v20H1052.3z M1018.3,96.65c-3.3,0-6-2.7-6-6c0-3.3,2.7-6,6-6s6,2.7,6,6
	C1024.3,93.95,1021.6,96.65,1018.3,96.65z M1023.3,131.65h-10v-31h10V131.65z"/>
<path fill="#112D4E" d="M62.625-63.5c-1.1,5.3-1.9,12.5-13,15c0,0-6.5,1.7-8.6-3c-1.3,5.1-2.6,9.8-3.4,11c-1.7,3-5,7-5,7s0.9-9,1-11
	c0.1-3.1,3-17,3-17s-2.7-9.8,4-11c0,0,5.5-1.3,4,6c0,0-1.1,4.8-2.5,10.3l0.5,0.7c0,0,1.3,2.7,4,3s9.8-4.5,10-13s-1.6-10.9-9-13
	c-7.5-2.1-13.7,1.5-16,8c-2.6,7.4-0.5,9.2,1,11l-1,5c0,0-7.2-2.4-7-10s4.5-19,20-19C60.025-83.5,63.725-68.9,62.625-63.5z"/>
<path fill="#444444" d="M1259.8,109.65h-6.5v6.5c0,0.8-0.7,1.5-1.5,1.5h-1c-0.8,0-1.5-0.7-1.5-1.5v-6.5h-6.5c-0.8,0-1.5-0.7-1.5-1.5
	v-1c0-0.8,0.7-1.5,1.5-1.5h6.5v-6.5c0-0.8,0.7-1.5,1.5-1.5h1c0.8,0,1.5,0.7,1.5,1.5v6.5h6.5c0.8,0,1.5,0.7,1.5,1.5v1
	C1261.3,108.95,1260.6,109.65,1259.8,109.65z M1237.2,92.05c1.3,1.7,2.1,3.8,2.1,6.1c0,4.3-2.8,7.9-6.8,9.6c0.3,1,1.3,2.1,3.8,3.9
	c4.8,3.5,5,10,5,10l0,0c0,0.2,0,0.3,0,0.5c0,5.2-6.3,9.5-14,9.5c-7.7,0-14-4.3-14-9.5c0-5,5.7-9.1,13-9.5v-4.1
	c-5.6-0.7-10-5.1-10-10.4c0-5.8,5.1-10.5,11.5-10.5c0.2,0,0.3,0,0.5,0l0,0c0,0,11.5-0.9,13-1s1,2,1,2L1237.2,92.05z M1220.3,121.65
	c0,3.3,3.4,6,7.5,6s7.5-2.7,7.5-6s-3.4-6-7.5-6S1220.3,118.35,1220.3,121.65z M1232.5,97.15c-0.8-3.8-3.6-6.5-6.2-6
	c-2.6,0.5-4,4.1-3.2,7.9c0.8,3.8,3.6,6.5,6.2,6C1231.9,104.55,1233.3,101.05,1232.5,97.15z"/>
<path fill="#444444" d="M746.3,210.05c4.8,1.8,8.1,5.6,8.1,9.9c0,6-6.2,10.9-13.9,11.1l0,0h-7h-7h-3.1v-38l10.1-0.2
	c0,0,19.4-0.8,19.4,9.5C752.8,205.55,750.2,208.25,746.3,210.05z M736.9,200.45c-1.4,0-3.2,0.1-3.5,0l-0.1,7.6
	c0.1,0,2.2,0.1,3.6,0.1c2.8,0,5-1.7,5-3.8S739.7,200.45,736.9,200.45z M737.3,214.95c-1.5,0-3.9,0.1-3.9,0l0.1,7.6c0,0,2.4,0,3.9,0
	c3.4,0,6.2-1.7,6.2-3.8C743.5,216.75,740.7,214.95,737.3,214.95z"/>
<path fill="#444444" d="M841.5,218.45c0,0-1.5,0.1-1,1c0.4,0.9,6.8,6.5,7.2,8.1c0.4,1.6,1.1,2.1-1,4.1c-2.1,2-3.7,1.5-7.2-2
	c-3.4-3.6-5.1-5.1-5.1-5.1s-1.7,1.5-5.1,5.1s-5.1,4-7.2,2s-1.4-2.4-1-4.1c0.4-1.6,6.8-7.3,7.2-8.1c0.4-0.9-1-1-1-1
	c-9.8-1.1-7.2-7.1-7.2-7.1c2.4-3.7,6.2-1,6.2-1c3.9,2.7,8.2,2,8.2,2s4.3,0.7,8.2-2c0,0,3.7-2.7,6.2,1
	C848.7,211.35,851.3,217.35,841.5,218.45z M834.3,208.65c-6.6,0-12-5.4-12-12s5.4-12,12-12c6.6,0,12,5.4,12,12
	S840.9,208.65,834.3,208.65z M834.3,191.65c-2.8,0-5,2.2-5,5s2.2,5,5,5s5-2.2,5-5S837.1,191.65,834.3,191.65z"/>
<path fill="#444444" d="M958.3,231.55l-1.6,1.1l-18.2-8.3l-18.4-24.9c-2.9-3.9-1.3-9.8,3.4-13.3s10.9-3.2,13.8,0.7l18.4,24.9
	l0.1-0.1L958.3,231.55z M952.7,227.25l1.6-1.1l-0.7-10.4c-1.2,0.1-7.4,0.3-8.7-0.7c0.5,1.5-1.5,7.3-1.9,8.5L952.7,227.25z
	 M940.4,221.85L940.4,221.85c2.5-4.2,2-8.7,2-8.7l-10.9-14.8c-2,1.7-3.4,3.9-4,6.1L940.4,221.85z M925.3,188.45
	c-2.9,2.1-4.2,5.4-3.5,7.9c0.7-2.3,2.3-4.6,4.6-6.3c2.4-1.7,5-2.6,7.4-2.5C931.7,186.05,928.2,186.35,925.3,188.45z M936,189.85
	c-2.5-0.1-5.3,0.7-7.8,2.5s-4.1,4.2-4.7,6.7l2.3,3.1c0.6-2.4,2.2-4.9,4.7-6.7s5.3-2.6,7.8-2.5L936,189.85z M933,197.25l10.9,14.8
	c0,0,4.2,1.8,8.9,0.7l0,0l-12.8-17.4C937.8,195.25,935.3,195.85,933,197.25z"/>
<path fill="#444444" d="M1037.3,233.65c-13.8,0-25-11.2-25-25c0-1,0.1-2,0.2-2.9c-0.1,0-0.1-0.1-0.2-0.1l0.3-0.6
	c1.7-12.1,12.1-21.4,24.7-21.4c13.8,0,25,11.2,25,25S1051.1,233.65,1037.3,233.65z M1057,212.35c-2.7-1.1-5.6-1.7-8.6-1.7
	c-0.9,0-1.8,0-2.7,0.1c1.3,4.2,2.3,9.1,2.6,14.6C1052.8,222.45,1056,217.75,1057,212.35z M1044.3,227.35c-0.1-1.4-0.7-8.1-3.2-15.9
	c-7.4,1.8-13.3,6.3-16,13c3.4,2.6,7.6,4.2,12.2,4.2C1039.8,228.65,1042.1,228.15,1044.3,227.35z M1017.3,208.65
	c0,4.7,1.6,9,4.4,12.5c3.8-6.6,10.4-11.3,18.1-13.4c-0.3-0.7-0.6-1.5-0.9-2.2c-3.3,1-7.1,1.8-11.6,2.1c-3.3,0.3-6.8,0.4-9.9-0.2
	C1017.4,207.85,1017.3,208.25,1017.3,208.65z M1018.2,202.95c3.4,0.8,7.4,1.1,10.2,0.7c3.5-0.5,6.4-1.1,8.8-1.9c-2.2-4.1-5-8-8.7-11
	C1023.5,193.15,1019.8,197.55,1018.2,202.95z M1033,189.15c1.9,1.9,5.2,5.5,8.3,11.1c4-1.9,6.4-4.3,8.5-7.3
	c-3.4-2.7-7.7-4.3-12.4-4.3C1035.8,188.65,1034.4,188.85,1033,189.15z M1052.5,195.65c-1.9,3.2-4.9,6.1-9.5,8.2
	c0.4,0.9,0.9,1.9,1.3,3c1-0.1,2-0.2,3-0.2c3.7-0.1,7,0.3,10,1.1C1057.1,203.15,1055.3,198.95,1052.5,195.65z"/>
<path fill="#444444" d="M1144.3,193.85h13v4h-13V193.85z M1150.8,200.85c6.4,0,11.5,5.1,11.5,11.5c0,0.5,0,1-0.1,1.5h-5h-5.9h-5.9
	c0.6,3.4,3,6,5.9,6c2.3,0,4.3-1.6,5.3-4h5.2c-1.5,4.6-5.8,8-11,8c-6.4,0-11.5-5.1-11.5-11.5
	C1139.3,206.05,1144.5,200.85,1150.8,200.85z M1156.9,209.85c-0.8-2.9-3-5-5.6-5s-4.8,2.1-5.6,5H1156.9z M1129.3,223.65l-17,0.2v-31
	c0,0,24.2-3.3,24,7c0,0,0.8,5.3-3,7c0,0,5,0.8,5,8C1138.3,214.85,1138.7,221.95,1129.3,223.65z M1126.3,197.85h-7v7h7c4.1,0,4-3,4-3
	C1130.2,197.65,1126.3,197.85,1126.3,197.85z M1127.3,209.85h-8v8h8c4.1,0,4-4,4-4C1131.2,210.05,1127.3,209.85,1127.3,209.85z"/>
<path fill="#444444" d="M1241,219.35l-0.5,0.2l-5.2-10.9c0.5-0.1,6,0,6,0l1.9,4.2l7-1.9c-3.6-3-9.8-4.3-15.4-4.3
	c-1.6,0-3.1,0.2-4.6,0.6l6.1,13.5l-21.9,6.3c-1.4-2.7-2.2-5.4-2.2-8.3c0-6.3,5.6-11.5,9.9-13.4l-2.9-5.7h7l2.2,3.9
	c3.3-0.5,9.7-0.2,14.4,0.2c7.9,0.7,15,4.9,20.4,9.3L1241,219.35z M1224.5,210.05c-3,2.3-4.9,5.6-5.2,9.3l8.6-2.4L1224.5,210.05z"/>
<path fill="#444444" d="M751.6,318.65c-5.9,0-10.7-4.7-10.7-10.5s4.8-10.5,10.7-10.5c5.9,0,10.7,4.7,10.7,10.5
	S757.5,318.65,751.6,318.65z M723,318.65c-5.9,0-10.7-4.7-10.7-10.5s4.8-10.5,10.7-10.5c5.9,0,10.7,4.7,10.7,10.5
	S728.9,318.65,723,318.65z"/>
<path fill="#444444" d="M843.7,330.65h-12.8c-8,0-13.6-6.4-13.6-14.4v-14c0-6,5.6-11.6,11.6-11.6h9.6c9.9,0,11.6,11.2,11.6,11.2
	c0,2.2,1.8,4,4,4h2.4c0.8,1.8,0.8,4.6,0.8,7.2v3.2C857.3,324.15,851.7,330.65,843.7,330.65z M840.3,302.65c0-1.1-0.9-2-2-2h-9
	c-1.1,0-2,0.9-2,2v1c0,1.1,0.9,2,2,2h9c1.1,0,2-0.9,2-2V302.65z M847.3,317.65c0-1.1-0.9-2-2-2h-16c-1.1,0-2,0.9-2,2v1
	c0,1.1,0.9,2,2,2h16c1.1,0,2-0.9,2-2V317.65z"/>
<path fill="#444444" d="M942.3,325.65c0,0,6.6,0.5,9-3v9c0,0-5.7,3-11,3s-13.9-2.6-14-13v-17h-6v-8c0,0,9.4-1,11-13h6v12h12v9h-12
	v12C937.3,316.65,936.5,325.15,942.3,325.65z"/>
<path fill="#112D4E" d="M1047.5,334.65h-34c-4.4,0-8-3.6-8-8v-9c0-4.4,3.6-8,8-8h34c4.4,0,8,3.6,8,8v9
	C1055.5,331.05,1051.9,334.65,1047.5,334.65z M1021.5,312.65h-3h-4h-2v2h3v14h3v-14h3V312.65z M1028.5,316.65h-2v9.4
	c-0.7,0.2-2.1,1.6-3-0.4v-9h-2v10c0,0-0.1,2.8,2,3c0,0,1.2,0.3,3-1.7v1.7h2V316.65z M1034,316.65c-0.5,0-1,0.2-1.5,0.6v-4.6h-2v16
	c0,0,2.8,1,3.5,1c1.9,0,3.5-2.9,3.5-6.5S1035.9,316.65,1034,316.65z M1042.5,316.65c-2.2,0-4,2.9-4,6.5s1.8,6.5,4,6.5
	c1.9,0,3.5-2.1,3.9-5h-2.9c-0.2,1.7-0.3,3-1,3c-0.8,0-0.9-1.8-1-4h1h2h2c0-0.2,0-0.3,0-0.5
	C1046.5,319.55,1044.7,316.65,1042.5,316.65z M1042.5,318.65c0.7,0,0.8,1.3,1,3h-1.9C1041.8,319.85,1041.9,318.65,1042.5,318.65z
	 M1033.5,326.65c-0.8,0-1-1-1-3.5s0.2-4.5,1-4.5c0.8,0,1,2,1,4.5S1034.3,326.65,1033.5,326.65z M1041.5,303.95c-1.8,2-3,1.7-3,1.7
	c-2.1-0.2-2-3-2-3v-11h3v11c0.5,0.6,1.3,0.5,2,0.4v-11.4h3v14h-3V303.95z M1030,305.65c-2.5,0-4.5-3.4-4.5-7.5s2-7.5,4.5-7.5
	s4.5,3.4,4.5,7.5S1032.5,305.65,1030,305.65z M1030,293.65c-0.8,0-1.5,2-1.5,4.5s0.7,4.5,1.5,4.5c0.8,0,1.5-2,1.5-4.5
	S1030.8,293.65,1030,293.65z M1021.5,305.65h-1h-1h-1v-9l-4-10h4l1,6l0.5,1.5l0.5-1.5l1-6h4l-4,10V305.65z"/>
<path fill="#444444" d="M1141.3,302.05c0,1.2,1.5,0.3,3,1s4.3,1.5,2,8c0,0-3.3,9.7-6,9c0,0-4.2,0.2-5-9c-0.8-9.2-2.4-18.5-7-18
	s-11.4,5-16,11c0,0,1.3,3.1,3,3c1.7-0.1,1.6-2.6,3-2s3.6,0.5,5,9s3.6,13,6,17s4.9,4,7,4s8.8-4.8,15-13c6.2-8.2,11-18.1,11-20
	s1.8-8.8-5-10C1150.5,290.85,1141.4,297.65,1141.3,302.05z"/>
<path fill="#444444" d="M1236.8,334.65c-10.9,0-19.7-8.4-20.4-19.1c0-0.1-0.1-0.2-0.1-0.4v-29c0-1.4,1.1-2.5,2.5-2.5h1
	c1.4,0,2.5,1.1,2.5,2.5v13.5c3.7-3.7,8.8-6,14.5-6c11.3,0,20.5,9.2,20.5,20.5S1248.1,334.65,1236.8,334.65z M1236.8,299.65
	c-8,0-14.5,6.5-14.5,14.5s6.5,14.5,14.5,14.5s14.5-6.5,14.5-14.5S1244.8,299.65,1236.8,299.65z M1230.3,317.65c-2.2,0-4-1.8-4-4
	s1.8-4,4-4c2.2,0,4,1.8,4,4S1232.5,317.65,1230.3,317.65z"/>
<path fill="#444444" d="M750.3,425.65c-6.1,0-11-4.5-11-10v-8l3,3l6-3v8c0,1.1,0.9,2,2,2s2-0.9,2-2v-8h9v8
	C761.3,421.15,756.4,425.65,750.3,425.65z M739.3,401.65v-4c0-1.1-0.9-2-2-2s-2,0.9-2,2v10v8c0,5.5-4.9,10-11,10s-11-4.5-11-10v-8h9
	v8c0,1.1,0.9,2,2,2s2-0.9,2-2v-8v-10c0-5.5,4.9-10,11-10s11,4.5,11,10v4l-6,3L739.3,401.65z"/>
<path fill="#444444" d="M837.1,396.25l8.7-7.4l14.7,9l-8.7,7.4L837.1,396.25z M837.1,415.15l14.7-9l8.7,7.4l-14.7,9L837.1,415.15z
	 M845.9,424.55l5.4-3.1v4.3l-14,8.8h-1l-14-8.8v-4.3l5.4,3.1l7.7-6.4l1.3-1.1l1.3,1.1L845.9,424.55z M813,413.55l8.7-7.4l14.7,9
	l-8.6,7.4L813,413.55z M813,397.85l14.7-9l8.7,7.4l-14.7,9L813,397.85z"/>
<path fill="#444444" d="M957.3,402.15c0,8.3-8.7,15-19.5,15s-19.5-6.7-19.5-15c0-3.2,1.3-6.2,3.6-8.7c-1.3-2.6-1-7.9,0.4-9.2
	c1.2-1.1,5.6,2.7,7.3,4.2c2.5-0.9,5.2-1.4,8.2-1.4c2.6,0,5.1,0.4,7.4,1.1c1.9-1.7,5.9-5,7.1-4c1.2,1.2,1.7,5.7,0.7,8.5
	C955.7,395.35,957.3,398.55,957.3,402.15z M943.3,417.15c0,0,2.1,0.2,2,4v9c0,0,0.8,1.6,2,2c0,0,1.1,0.9-1,1c0,0-2.1,0.1-3-1
	c-0.9-1.1-1-2-1-3s0-6,0-6s-0.7-2-1,0v6v2c0,0,0.3,2.2,2,3c0,0-3.7,0.9-5-4v-7c-0.4-1.2-1,0-1,0v7c-1.3,4.9-5,4-5,4c1.7-0.8,2-3,2-3
	v-2v-6c-0.3-2-1,0-1,0s0,5,0,6s-0.1,1.9-1,3c-0.9,1.1-3,1-3,1c-2.1-0.1-1-1-1-1c1.2-0.4,2-2,2-2v-4c-0.3-2-4.4-1.4-6-2
	c-1.6-0.6-4.3-4.3-5-7s-3-1-3-1c1.7-3.2,4-1,4-1c5,7.9,10,5,10,5s0,0.2,0,0.6c0.1-3.4,2-3.6,2-3.6h5h0.5h0.5H943.3z"/>
<path fill="#444444" d="M1050.2,417.55l1.1,1.1l-15,15l-14-14c-5.6-0.3-10-4.9-10-10.5c0-5.8,4.7-10.5,10.5-10.5
	c5,0,9.2,3.5,10.3,8.2l3.2-3.2l6.7,6.7l17.3-17.7h2v15L1050.2,417.55z M1060.3,406.65v-11l0,0l-25,24l-4.8-6.9
	c0.5-1.1,0.8-2.3,0.8-3.6c0-4.7-3.8-8.5-8.5-8.5c-4.7,0-8.5,3.8-8.5,8.5s3.8,8.5,8.5,8.5c0.6,0,1.1-0.1,1.7-0.2l10.8,9.2l25-19
	V406.65z"/>
<path fill="#444444" d="M1159.3,416.85c0,8.2-9.9,15.8-20.9,15.8c-11.1,0-20-4.8-20-13c0-2.6,1-5.3,2.6-7.7
	c-4.6-5.1-3.5-15-3.5-11.2c0-2.9,1.9-5.7,4.8-8c0.8-0.7,1.7-1.3,2.6-1.7c3.6-2,8-3.4,12.2-3.4c9.3,0,16.9,5,16.9,11.7
	c0,2.3-1.1,4.5-2.9,6.4C1156,408.25,1159.3,412.15,1159.3,416.85z M1147.4,398.05c-1.5-5.4-8.4-8.2-15.3-6.2s-11.3,8-9.8,13.4
	c0.5,1.6,1.4,3,2.7,4.1c1.5-0.3,3.5-0.5,4.8,0.8c0,0,0.8,0.9-0.9,1.8c0.9-0.5-2.1,0.1-1.7,5.1c0.6,0.6,1.6,1,3.4,1.2
	c3.8,0.4,2.6-9.4,1.8-17.1c-0.8-7.7,4.3-6.4,6.2-6.3s1.1,2.5,0,3.6s0,5.4,0,5.4c1.8-1.3,3.6-0.9,3.6-0.9c1.7,0,3.2,0.5,4.4,1.1
	C1147.7,402.05,1148,400.05,1147.4,398.05z M1147.7,408.25c-1.6,1.5-3.4,1.9-5.3,1.9c-2.7,0.1-4.5-0.9-4.5-0.9v5.4
	c-0.8,8.8-5.2,7.9-7.1,8.1c-1.6,0.2-2.9-1.1-3.4-1.6c1,5.7,6.1,7,12.3,7c6.9,0,12.4-6.5,12.5-11.7
	C1152.2,413.15,1150.4,410.25,1147.7,408.25z"/>
<path fill="#444444" d="M1233.3,428.65v-8h-10v-4h-8v-9c0-2.8,2.2-5,5-5c2,0,3.8,1.2,4.6,3c1.1-1.2,2.7-2,4.4-2
	c2.7,0,4.9,1.7,5.7,4.1c1.5-1.9,3.8-3.1,6.3-3.1c4.4,0,8,3.6,8,8v16H1233.3z M1241.3,402.65c-3.3,0-6-2.7-6-6s2.7-6,6-6
	c3.3,0,6,2.7,6,6S1244.6,402.65,1241.3,402.65z M1229.3,401.65c-2.2,0-4-1.8-4-4s1.8-4,4-4c2.2,0,4,1.8,4,4
	S1231.5,401.65,1229.3,401.65z M1220.3,400.65c-1.7,0-3-1.3-3-3s1.3-3,3-3c1.7,0,3,1.3,3,3S1222,400.65,1220.3,400.65z"/>
</svg>
